<?xml version="1.0" standalone="no"?>
<!DOCTYPE svg PUBLIC "-//W3C//DTD SVG 20010904//EN"
 "http://www.w3.org/TR/2001/REC-SVG-20010904/DTD/svg10.dtd">
<svg version="1.0" xmlns="http://www.w3.org/2000/svg"
 width="1000.000000pt" height="1000.000000pt" viewBox="0 0 1000.000000 1000.000000"
 preserveAspectRatio="xMidYMid meet">
<metadata>
Created by potrace 1.14, written by Peter Selinger 2001-2017
</metadata>
<g transform="translate(0.000000,1000.000000) scale(0.100000,-0.100000)"
fill="#000000" stroke="none">
<path d="M0 5000 l0 -5000 5000 0 5000 0 0 5000 0 5000 -5000 0 -5000 0 0
-5000z m5470 4725 c1332 -140 2529 -808 3314 -1850 827 -1097 1141 -2494 865
-3845 -135 -660 -437 -1329 -846 -1874 -277 -369 -641 -726 -1019 -1002 -1462
-1064 -3439 -1197 -5034 -338 -985 529 -1756 1395 -2165 2429 -395 1001 -441
2101 -129 3135 334 1107 1070 2060 2067 2674 162 99 462 253 632 324 519 216
1043 335 1615 366 139 8 552 -4 700 -19z"/>
<path d="M4810 9422 c0 -15 11 -21 27 -15 12 5 12 7 1 14 -17 11 -28 11 -28 1z"/>
<path d="M4550 9376 c-5 -13 -18 -27 -29 -31 -28 -9 -27 -29 2 -22 12 3 105
11 207 18 209 13 511 7 722 -16 170 -18 466 -68 541 -91 9 -3 17 -1 17 5 0 6
-8 11 -19 11 -10 0 -33 5 -50 11 -25 9 -29 14 -19 21 8 5 -2 6 -26 2 -32 -5
-37 -4 -31 7 5 8 5 11 0 7 -4 -4 -15 -2 -23 5 -11 8 -14 8 -9 0 15 -24 -15
-24 -38 1 -27 29 -53 34 -61 11 -5 -11 -11 -12 -24 -5 -10 6 -30 10 -45 10
-15 0 -24 4 -20 10 3 6 -1 10 -10 10 -10 0 -13 -5 -9 -12 5 -8 0 -9 -17 -4
-13 4 -41 7 -61 6 -28 0 -40 4 -48 20 -13 25 -48 26 -66 3 -13 -17 -15 -17
-27 -2 -10 14 -26 16 -82 12 -61 -4 -73 -2 -94 16 -30 26 -41 27 -41 1 0 -25
-28 -26 -46 -2 -12 15 -15 15 -24 2 -6 -10 -10 -11 -10 -2 0 17 -37 15 -44 -3
-5 -13 -21 -15 -92 -11 -48 2 -89 8 -93 14 -3 5 -16 12 -28 16 -17 6 -23 3
-23 -8 0 -9 -4 -16 -10 -16 -5 0 -10 5 -10 10 0 17 -28 11 -43 -10 -11 -16
-19 -18 -37 -12 -12 4 -44 5 -71 2 -50 -7 -96 10 -84 31 4 5 1 9 -5 9 -6 0
-15 -11 -20 -24z"/>
<path d="M5308 9373 c7 -3 16 -2 19 1 4 3 -2 6 -13 5 -11 0 -14 -3 -6 -6z"/>
<path d="M4435 9320 c-3 -6 1 -7 9 -4 18 7 21 14 7 14 -6 0 -13 -4 -16 -10z"/>
<path d="M4290 9300 c-8 -5 -10 -10 -5 -10 6 0 17 5 25 10 8 5 11 10 5 10 -5
0 -17 -5 -25 -10z"/>
<path d="M4025 9250 c-16 -7 -17 -9 -3 -9 9 -1 20 4 23 9 7 11 7 11 -20 0z"/>
<path d="M4625 9245 c-1307 -120 -2452 -803 -3182 -1900 -374 -561 -601 -1198
-685 -1920 -20 -171 -17 -715 5 -895 87 -717 316 -1339 708 -1920 412 -611
975 -1104 1634 -1429 508 -251 981 -383 1554 -432 174 -15 671 -6 841 15 829
105 1585 430 2224 959 139 115 417 390 528 522 236 282 412 553 573 880 217
441 337 842 408 1359 19 141 22 206 22 516 0 383 -12 522 -71 820 -352 1786
-1799 3153 -3599 3399 -312 43 -669 52 -960 26z m1254 -2299 c311 -52 510
-140 679 -300 194 -185 282 -430 283 -786 0 -384 -112 -661 -375 -930 -35 -36
-68 -67 -72 -69 -27 -11 -94 -66 -84 -69 20 -7 -11 -32 -40 -32 -15 0 -42 -10
-61 -23 -19 -12 -53 -31 -76 -41 -36 -16 -41 -22 -33 -37 15 -27 13 -29 -30
-29 -22 0 -40 5 -40 10 0 7 -6 7 -17 1 -10 -6 -30 -12 -45 -16 -15 -3 -39 -18
-53 -33 -19 -20 -25 -23 -25 -10 0 15 -5 15 -67 -3 -38 -10 -69 -19 -71 -19
-2 0 0 -4 3 -10 3 -5 0 -10 -9 -10 -8 0 -16 4 -18 10 -2 6 -15 3 -33 -6 -16
-9 -51 -17 -77 -17 -31 -1 -48 -6 -48 -14 0 -7 -8 -13 -19 -13 -11 0 -21 -9
-24 -21 -5 -18 -11 -21 -41 -15 -27 5 -37 3 -44 -10 -14 -25 -66 -11 -59 17 6
23 -11 34 -67 45 -31 5 -42 3 -52 -10 -7 -10 -16 -16 -21 -14 -4 2 -9 -7 -11
-19 -4 -25 -39 -40 -55 -24 -7 7 -7 18 1 36 15 33 15 35 -3 35 -8 0 -15 -8
-15 -17 -1 -17 -1 -17 -14 0 -18 23 -63 22 -71 -2 -5 -16 -9 -17 -29 -8 -14 7
-22 15 -20 19 3 5 -8 8 -25 8 -16 0 -32 -6 -35 -12 -5 -10 -7 -10 -12 0 -3 6
-14 12 -25 12 -16 0 -18 -5 -13 -25 5 -21 3 -25 -15 -25 -12 0 -21 -6 -21 -15
0 -8 -4 -15 -10 -15 -5 0 -10 9 -10 20 0 24 -18 26 -35 3 -7 -9 -28 -17 -51
-18 -124 -7 -172 -7 -183 -1 -16 10 -118 9 -133 -1 -13 -8 -19 -9 -79 -12 -73
-2 -67 17 -199 -606 -66 -313 -125 -591 -131 -617 l-11 -48 -419 0 -419 0 5
23 c9 39 776 3721 782 3755 l6 33 891 -4 c788 -3 903 -5 995 -21z m131 -2356
c-11 -20 -22 -25 -33 -14 -11 11 5 34 24 34 17 0 18 -3 9 -20z m-674 -104 c22
-23 17 -36 -15 -36 -37 0 -49 17 -25 35 24 18 23 18 40 1z m-178 -18 c-3 -7
-13 -15 -24 -17 -16 -3 -17 -1 -5 13 16 19 34 21 29 4z"/>
<path d="M5105 6290 c3 -5 8 -10 11 -10 2 0 4 5 4 10 0 6 -5 10 -11 10 -5 0
-7 -4 -4 -10z"/>
<path d="M5185 6242 c-21 -18 -94 -34 -122 -27 -15 4 -49 6 -76 6 -26 -1 -56
3 -67 9 -15 8 -32 6 -69 -6 -33 -10 -55 -13 -68 -6 -10 5 -35 5 -60 0 -31 -7
-42 -15 -47 -32 -22 -88 -206 -999 -202 -1003 10 -10 976 -2 1032 8 323 60
507 308 491 663 -5 115 -19 176 -42 176 -7 0 -19 14 -27 30 -7 17 -21 30 -31
30 -10 0 -21 10 -26 22 -6 17 -17 23 -44 24 -20 0 -45 9 -56 18 -16 15 -32 21
-62 25 -3 1 -11 13 -18 27 -8 19 -15 23 -24 16 -11 -9 -62 -10 -222 -2 -11 0
-27 0 -35 -1 -56 -7 -160 3 -174 16 -16 17 -37 19 -51 7z"/>
<path d="M4878 4513 c7 -3 16 -2 19 1 4 3 -2 6 -13 5 -11 0 -14 -3 -6 -6z"/>
<path d="M6040 9240 c-31 -9 -36 -7 154 -60 1287 -360 2354 -1326 2849 -2580
206 -523 299 -1017 300 -1590 0 -354 -28 -623 -99 -945 -243 -1096 -904 -2058
-1839 -2679 -208 -138 -301 -191 -537 -305 -1005 -487 -2183 -560 -3258 -201
-279 94 -658 272 -900 424 -863 542 -1505 1352 -1826 2301 -268 792 -304 1633
-103 2447 105 426 277 836 527 1252 3 5 0 6 -6 2 -7 -4 -12 -3 -12 2 0 5 8 12
18 14 10 3 28 21 39 40 l21 35 -29 -14 c-16 -8 -37 -26 -47 -40 -9 -14 -27
-35 -39 -47 -15 -15 -19 -26 -12 -37 13 -20 11 -29 -6 -29 -8 0 -15 -6 -15
-13 0 -16 -34 -50 -42 -42 -3 3 -3 -5 -1 -18 3 -17 -5 -35 -27 -61 -18 -20
-29 -36 -25 -36 5 0 -3 -10 -16 -22 -14 -13 -23 -31 -21 -42 3 -14 0 -17 -13
-13 -9 4 -14 3 -10 -3 3 -6 1 -10 -5 -10 -7 0 -9 -7 -6 -16 7 -18 -8 -51 -36
-77 -10 -10 -16 -22 -13 -28 4 -5 2 -9 -2 -9 -5 0 -9 -10 -10 -21 -1 -12 -7
-27 -14 -33 -9 -8 -10 -7 -4 4 8 13 7 13 -9 0 -11 -8 -14 -16 -7 -18 23 -8 11
-60 -24 -103 -19 -24 -35 -52 -35 -61 0 -25 -11 -48 -21 -43 -14 9 -26 -28
-23 -73 2 -35 0 -42 -12 -38 -12 5 -14 1 -9 -15 7 -20 -32 -119 -46 -119 -4 0
-5 -10 -2 -22 3 -16 2 -19 -5 -10 -7 10 -11 10 -21 -1 -9 -12 -8 -18 4 -30 14
-14 14 -17 -2 -26 -10 -6 -13 -11 -8 -11 6 0 4 -4 -3 -8 -9 -6 -10 -16 -2 -39
10 -26 6 -43 -21 -114 -18 -46 -37 -87 -43 -91 -6 -4 -7 -8 -2 -8 4 0 1 -12
-9 -26 -12 -19 -15 -38 -11 -63 6 -42 -7 -111 -25 -121 -7 -5 -9 -18 -5 -34 3
-14 3 -26 -2 -26 -14 0 -37 -143 -23 -148 16 -5 13 -32 -4 -32 -16 0 -18 -18
-20 -175 0 -38 -3 -74 -7 -80 -3 -5 -6 -50 -7 -100 -1 -49 -3 -106 -5 -125 -5
-64 13 -410 29 -543 45 -386 147 -788 294 -1157 63 -157 218 -467 311 -620
459 -759 1142 -1373 1938 -1740 1294 -597 2802 -534 4042 168 900 509 1611
1338 1971 2299 278 742 353 1519 223 2298 -133 798 -505 1573 -1050 2191 -119
134 -322 334 -340 334 -9 0 -13 4 -10 9 3 5 -5 12 -19 15 -14 4 -25 13 -25 20
0 26 -176 166 -281 223 -65 35 -90 53 -85 62 3 4 -6 19 -20 32 -24 22 -26 23
-35 6 -9 -16 -13 -15 -40 13 -17 16 -27 34 -24 40 3 5 -4 15 -17 20 -13 6 -38
21 -56 35 -18 13 -40 21 -48 18 -8 -3 -21 2 -28 12 -7 10 -23 18 -37 19 -17 1
-24 7 -24 21 0 12 -7 20 -17 20 -9 0 -20 3 -23 7 -4 4 -20 5 -35 2 -15 -4 -31
-1 -34 5 -4 6 0 11 9 11 36 0 2 18 -47 25 -71 9 -90 13 -91 17 -21 43 -26 46
-60 32 -13 -5 -20 -1 -23 14 -6 20 -50 37 -87 34 -10 -1 -15 2 -12 8 4 6 -1 7
-11 3 -11 -4 -15 -3 -11 4 6 9 -65 46 -93 48 -3 1 -19 9 -37 18 -18 9 -40 18
-50 20 -10 2 -28 8 -40 15 -12 7 -31 12 -42 12 -12 0 -21 7 -21 15 0 8 -6 16
-12 16 -47 5 -58 7 -73 13 -10 4 -15 12 -11 22 5 12 1 14 -15 9 -35 -11 -69
-13 -75 -3 -3 4 -9 6 -14 3 -5 -3 -20 0 -32 7 -13 6 -31 11 -41 9 -10 -1 -25
3 -33 10 -9 7 -37 14 -62 16 -28 1 -51 9 -58 18 -6 8 -13 15 -15 14 -2 -1 -15
-4 -29 -9z m1320 -515 c0 -8 -7 -15 -15 -15 -13 0 -14 3 -3 15 16 18 18 18 18
0z"/>
<path d="M3898 9213 c7 -3 16 -2 19 1 4 3 -2 6 -13 5 -11 0 -14 -3 -6 -6z"/>
<path d="M3700 9176 c0 -9 -5 -16 -12 -16 -6 0 -9 -2 -6 -5 2 -3 24 1 49 9 24
8 37 15 29 15 -8 1 -25 4 -37 7 -17 5 -23 2 -23 -10z"/>
<path d="M3566 9151 c-4 -6 -4 -15 -1 -21 3 -5 0 -10 -7 -10 -8 0 -23 -7 -34
-15 -11 -8 14 -3 64 13 66 21 79 28 60 33 -13 3 -30 0 -40 -8 -14 -13 -17 -12
-26 3 -6 11 -11 13 -16 5z"/>
<path d="M3350 9040 c-13 -8 -12 -10 3 -10 9 0 17 5 17 10 0 12 -1 12 -20 0z"/>
<path d="M8072 8243 c15 -15 30 -24 34 -21 8 8 -32 48 -48 48 -7 0 0 -12 14
-27z"/>
<path d="M8183 8161 c0 -11 5 -17 9 -15 11 7 10 34 -1 34 -6 0 -9 -9 -8 -19z"/>
<path d="M8202 8132 c-9 -6 -4 -16 19 -38 99 -94 304 -342 432 -522 436 -616
699 -1303 793 -2072 25 -210 30 -653 10 -880 -95 -1043 -529 -1991 -1251
-2728 -259 -266 -449 -424 -740 -616 -198 -132 -287 -183 -485 -282 -486 -241
-997 -389 -1550 -446 -192 -20 -738 -17 -920 5 -565 69 -1031 208 -1520 454
-763 383 -1387 964 -1835 1708 -266 442 -470 990 -559 1500 -9 48 -18 90 -20
93 -3 2 -8 -8 -12 -23 -4 -16 5 -82 21 -163 218 -1100 832 -2073 1729 -2739
945 -702 2122 -1002 3299 -842 844 114 1615 457 2290 1017 130 108 392 367
507 502 647 757 1013 1650 1081 2635 14 206 7 595 -16 784 -56 486 -171 913
-367 1366 -52 119 -87 185 -99 185 -5 0 -7 5 -4 10 13 21 -209 399 -235 401
-9 0 -11 2 -3 5 13 6 5 22 -66 122 -24 34 -51 62 -60 62 -10 0 -12 3 -5 8 11
7 -52 100 -110 162 -12 14 -28 36 -35 49 -10 19 -15 21 -22 10 -7 -11 -9 -10
-9 5 0 27 -58 96 -82 96 -16 0 -18 3 -9 13 8 11 5 19 -12 35 -13 12 -27 19
-32 15 -4 -5 -5 -3 -2 3 7 13 -16 37 -26 29 -4 -3 -5 -2 -2 1 6 10 -54 84 -68
84 -7 0 -18 -4 -25 -8z"/>
<path d="M1646 7784 c-23 -23 -20 -30 4 -9 11 10 20 20 20 22 0 7 -9 2 -24
-13z"/>
<path d="M1456 7555 c-9 -9 -13 -21 -10 -27 3 -5 13 0 21 12 19 26 11 37 -11
15z"/>
<path d="M1420 7510 c-12 -7 -12 -12 -3 -21 10 -10 14 -9 19 5 8 22 2 27 -16
16z"/>
<path d="M1380 7450 c-8 -26 -7 -41 2 -32 6 6 8 16 5 24 -3 7 -6 11 -7 8z"/>
<path d="M507 5183 c-4 -3 -7 -13 -7 -22 1 -13 3 -13 11 2 11 19 8 33 -4 20z"/>
<path d="M501 5083 c0 -25 1 -26 9 -8 12 27 12 35 0 35 -5 0 -10 -12 -9 -27z"/>
<path d="M513 4895 c-17 -18 -16 -22 2 -22 8 0 15 9 15 19 0 21 -1 22 -17 3z"/>
<path d="M521 4814 c0 -11 3 -14 6 -6 3 7 2 16 -1 19 -3 4 -6 -2 -5 -13z"/>
<path d="M522 4760 c0 -14 2 -19 5 -12 2 6 2 18 0 25 -3 6 -5 1 -5 -13z"/>
<path d="M525 4697 c-4 -10 -5 -21 -1 -24 10 -10 18 4 13 24 -4 17 -4 17 -12
0z"/>
<path d="M526 4594 c-3 -9 -1 -23 6 -32 8 -10 9 -17 3 -19 -16 -5 -2 -120 16
-138 13 -13 13 -3 4 90 -11 107 -18 129 -29 99z"/>
</g>
</svg>
